<?xml version="1.0" encoding="UTF-8" standalone="no"?>
<!DOCTYPE svg PUBLIC "-//W3C//DTD SVG 1.1//EN" "http://www.w3.org/Graphics/SVG/1.1/DTD/svg11.dtd">
<svg version="1.1" xmlns="http://www.w3.org/2000/svg" xmlns:xlink="http://www.w3.org/1999/xlink" preserveAspectRatio="xMidYMid meet" viewBox="0 0 80 80" width="80" height="80"><defs><path d="M48.65 32.18L30.44 15.52L29.49 16.47L28.52 15.54L10.28 33.06L12.21 34.92L29.51 18.31L47.71 34.94L48.65 33.99L49.6 34.94L68.76 17.42L66.87 15.52L48.65 32.18Z" id="a1khy8no24"></path><path d="M48.65 32.18L30.44 15.52L29.49 16.47L28.52 15.54L10.28 33.06L12.21 34.92L29.51 18.31L47.71 34.94L48.65 33.99L49.6 34.94L68.76 17.42L66.87 15.52L48.65 32.18Z" id="a8EavGhop"></path><path d="M48.65 32.18L30.44 15.52L29.49 16.47L28.52 15.54L10.28 33.06L12.21 34.92L29.51 18.31L47.71 34.94L48.65 33.99L49.6 34.94L68.76 17.42L66.87 15.52L48.65 32.18Z" id="a1WBQdIAbL"></path><path d="M48.65 32.18L30.44 15.52L29.49 16.47L28.52 15.54L10.28 33.06L12.21 34.92L29.51 18.31L47.71 34.94L48.65 33.99L49.6 34.94L68.76 17.42L66.87 15.52L48.65 32.18Z" id="d6fyqCfnR"></path><path d="M11.24 39.91C14.65 39.91 17.4 37.26 17.4 33.99C17.4 30.73 14.64 28.08 11.24 28.08C7.84 28.08 5.08 30.73 5.08 33.99C5.08 37.26 7.84 39.91 11.24 39.91Z" id="djOV6Pbv2"></path><path d="M11.24 39.91C14.65 39.91 17.4 37.26 17.4 33.99C17.4 30.73 14.64 28.08 11.24 28.08C7.84 28.08 5.08 30.73 5.08 33.99C5.08 37.26 7.84 39.91 11.24 39.91Z" id="c8yQ1v0Mm"></path><path d="M11.24 39.91C14.65 39.91 17.4 37.26 17.4 33.99C17.4 30.73 14.64 28.08 11.24 28.08C7.84 28.08 5.08 30.73 5.08 33.99C5.08 37.26 7.84 39.91 11.24 39.91Z" id="a23Y7fQQ6y"></path><path d="M11.24 39.91C14.65 39.91 17.4 37.26 17.4 33.99C17.4 30.73 14.64 28.08 11.24 28.08C7.84 28.08 5.08 30.73 5.08 33.99C5.08 37.26 7.84 39.91 11.24 39.91Z" id="b1oJB52GIC"></path><path d="M29.64 22.38C33.04 22.3 35.73 19.59 35.65 16.33C35.56 13.06 32.74 10.48 29.34 10.56C25.94 10.64 23.25 13.35 23.34 16.62C23.42 19.88 26.24 22.46 29.64 22.38Z" id="e1uVJdww47"></path><path d="M29.64 22.38C33.04 22.3 35.73 19.59 35.65 16.33C35.56 13.06 32.74 10.48 29.34 10.56C25.94 10.64 23.25 13.35 23.34 16.62C23.42 19.88 26.24 22.46 29.64 22.38Z" id="a2ARxJC6L3"></path><path d="M29.64 22.38C33.04 22.3 35.73 19.59 35.65 16.33C35.56 13.06 32.74 10.48 29.34 10.56C25.94 10.64 23.25 13.35 23.34 16.62C23.42 19.88 26.24 22.46 29.64 22.38Z" id="a1OgrE6t0I"></path><path d="M29.64 22.38C33.04 22.3 35.73 19.59 35.65 16.33C35.56 13.06 32.74 10.48 29.34 10.56C25.94 10.64 23.25 13.35 23.34 16.62C23.42 19.88 26.24 22.46 29.64 22.38Z" id="d2QnUzi1sq"></path><path d="M48.66 39.91C52.05 39.91 54.81 37.26 54.81 33.99C54.81 30.73 52.05 28.08 48.66 28.08C45.25 28.08 42.5 30.73 42.5 33.99C42.5 37.26 45.26 39.91 48.66 39.91Z" id="a12LWBE4FT"></path><path d="M48.66 39.91C52.05 39.91 54.81 37.26 54.81 33.99C54.81 30.73 52.05 28.08 48.66 28.08C45.25 28.08 42.5 30.73 42.5 33.99C42.5 37.26 45.26 39.91 48.66 39.91Z" id="bB7RhjW"></path><path d="M48.66 39.91C52.05 39.91 54.81 37.26 54.81 33.99C54.81 30.73 52.05 28.08 48.66 28.08C45.25 28.08 42.5 30.73 42.5 33.99C42.5 37.26 45.26 39.91 48.66 39.91Z" id="hMcs7ZUTv"></path><path d="M48.66 39.91C52.05 39.91 54.81 37.26 54.81 33.99C54.81 30.73 52.05 28.08 48.66 28.08C45.25 28.08 42.5 30.73 42.5 33.99C42.5 37.26 45.26 39.91 48.66 39.91Z" id="dY2eWLOKS"></path><path d="M67.97 22.38C71.36 22.3 74.05 19.59 73.97 16.33C73.89 13.06 71.06 10.48 67.66 10.56C64.26 10.64 61.58 13.35 61.66 16.62C61.74 19.88 64.56 22.46 67.97 22.38Z" id="a36NLGEuni"></path><path d="M67.97 22.38C71.36 22.3 74.05 19.59 73.97 16.33C73.89 13.06 71.06 10.48 67.66 10.56C64.26 10.64 61.58 13.35 61.66 16.62C61.74 19.88 64.56 22.46 67.97 22.38Z" id="bR5WPhHWu"></path><path d="M67.97 22.38C71.36 22.3 74.05 19.59 73.97 16.33C73.89 13.06 71.06 10.48 67.66 10.56C64.26 10.64 61.58 13.35 61.66 16.62C61.74 19.88 64.56 22.46 67.97 22.38Z" id="g5VoeDxlgz"></path><path d="M67.97 22.38C71.36 22.3 74.05 19.59 73.97 16.33C73.89 13.06 71.06 10.48 67.66 10.56C64.26 10.64 61.58 13.35 61.66 16.62C61.74 19.88 64.56 22.46 67.97 22.38Z" id="a1AEHOWEXP"></path><path d="M22.73 68.73C22.73 65.01 22.73 35.24 22.73 31.51C22.73 31.12 23.06 30.8 23.47 30.8C24.67 30.8 34.31 30.8 35.51 30.8C35.92 30.8 36.25 31.12 36.25 31.51C36.25 34 36.25 46.4 36.25 68.73C36.03 69.2 35.79 69.44 35.51 69.44C34.31 69.44 24.67 69.44 23.47 69.44C23.06 69.44 22.73 69.12 22.73 68.73Z" id="e1o0LN6wQG"></path><path d="M22.73 68.73C22.73 65.01 22.73 35.24 22.73 31.51C22.73 31.12 23.06 30.8 23.47 30.8C24.67 30.8 34.31 30.8 35.51 30.8C35.92 30.8 36.25 31.12 36.25 31.51C36.25 34 36.25 46.4 36.25 68.73C36.03 69.2 35.79 69.44 35.51 69.44C34.31 69.44 24.67 69.44 23.47 69.44C23.06 69.44 22.73 69.12 22.73 68.73Z" id="aBa597Hm2"></path><path d="M22.73 68.73C22.73 65.01 22.73 35.24 22.73 31.51C22.73 31.12 23.06 30.8 23.47 30.8C24.67 30.8 34.31 30.8 35.51 30.8C35.92 30.8 36.25 31.12 36.25 31.51C36.25 34 36.25 46.4 36.25 68.73C36.03 69.2 35.79 69.44 35.51 69.44C34.31 69.44 24.67 69.44 23.47 69.44C23.06 69.44 22.73 69.12 22.73 68.73Z" id="a2h6Cz9BJr"></path><path d="M22.73 68.73C22.73 65.01 22.73 35.24 22.73 31.51C22.73 31.12 23.06 30.8 23.47 30.8C24.67 30.8 34.31 30.8 35.51 30.8C35.92 30.8 36.25 31.12 36.25 31.51C36.25 34 36.25 46.4 36.25 68.73C36.03 69.2 35.79 69.44 35.51 69.44C34.31 69.44 24.67 69.44 23.47 69.44C23.06 69.44 22.73 69.12 22.73 68.73Z" id="bOczDUKZU"></path><path d="M4.48 68.73C4.48 66.35 4.48 47.31 4.48 44.93C4.48 44.54 4.81 44.22 5.22 44.22C6.42 44.22 16.06 44.22 17.26 44.22C17.67 44.22 18 44.54 18 44.93C18 46.52 18 54.45 18 68.73C17.78 69.2 17.54 69.44 17.26 69.44C16.06 69.44 6.42 69.44 5.22 69.44C4.81 69.44 4.48 69.12 4.48 68.73Z" id="a55PTSikYe"></path><path d="M4.48 68.73C4.48 66.35 4.48 47.31 4.48 44.93C4.48 44.54 4.81 44.22 5.22 44.22C6.42 44.22 16.06 44.22 17.26 44.22C17.67 44.22 18 44.54 18 44.93C18 46.52 18 54.45 18 68.73C17.78 69.2 17.54 69.44 17.26 69.44C16.06 69.44 6.42 69.44 5.22 69.44C4.81 69.44 4.48 69.12 4.48 68.73Z" id="d1jO6NhXpk"></path><path d="M4.48 68.73C4.48 66.35 4.48 47.31 4.48 44.93C4.48 44.54 4.81 44.22 5.22 44.22C6.42 44.22 16.06 44.22 17.26 44.22C17.67 44.22 18 44.54 18 44.93C18 46.52 18 54.45 18 68.73C17.78 69.2 17.54 69.44 17.26 69.44C16.06 69.44 6.42 69.44 5.22 69.44C4.81 69.44 4.48 69.12 4.48 68.73Z" id="aKb9dTtQg"></path><path d="M4.48 68.73C4.48 66.35 4.48 47.31 4.48 44.93C4.48 44.54 4.81 44.22 5.22 44.22C6.42 44.22 16.06 44.22 17.26 44.22C17.67 44.22 18 44.54 18 44.93C18 46.52 18 54.45 18 68.73C17.78 69.2 17.54 69.44 17.26 69.44C16.06 69.44 6.42 69.44 5.22 69.44C4.81 69.44 4.48 69.12 4.48 68.73Z" id="bQjho2TFe"></path><path d="M41.89 68.73C41.89 66.35 41.89 47.31 41.89 44.93C41.89 44.54 42.22 44.22 42.63 44.22C43.83 44.22 53.47 44.22 54.68 44.22C55.08 44.22 55.41 44.54 55.41 44.93C55.41 46.52 55.41 54.45 55.41 68.73C55.19 69.2 54.95 69.44 54.68 69.44C53.47 69.44 43.83 69.44 42.63 69.44C42.22 69.44 41.89 69.12 41.89 68.73Z" id="jI5UQ5wGE"></path><path d="M41.89 68.73C41.89 66.35 41.89 47.31 41.89 44.93C41.89 44.54 42.22 44.22 42.63 44.22C43.83 44.22 53.47 44.22 54.68 44.22C55.08 44.22 55.41 44.54 55.41 44.93C55.41 46.52 55.41 54.45 55.41 68.73C55.19 69.2 54.95 69.44 54.68 69.44C53.47 69.44 43.83 69.44 42.63 69.44C42.22 69.44 41.89 69.12 41.89 68.73Z" id="a3WASUYF32"></path><path d="M41.89 68.73C41.89 66.35 41.89 47.31 41.89 44.93C41.89 44.54 42.22 44.22 42.63 44.22C43.83 44.22 53.47 44.22 54.68 44.22C55.08 44.22 55.41 44.54 55.41 44.93C55.41 46.52 55.41 54.45 55.41 68.73C55.19 69.2 54.95 69.44 54.68 69.44C53.47 69.44 43.83 69.44 42.63 69.44C42.22 69.44 41.89 69.12 41.89 68.73Z" id="b6PjqSM9Y"></path><path d="M41.89 68.73C41.89 66.35 41.89 47.31 41.89 44.93C41.89 44.54 42.22 44.22 42.63 44.22C43.83 44.22 53.47 44.22 54.68 44.22C55.08 44.22 55.41 44.54 55.41 44.93C55.41 46.52 55.41 54.45 55.41 68.73C55.19 69.2 54.95 69.44 54.68 69.44C53.47 69.44 43.83 69.44 42.63 69.44C42.22 69.44 41.89 69.12 41.89 68.73Z" id="a4vEFzsEM"></path><path d="M61.99 68.73C61.99 65.01 61.99 35.24 61.99 31.51C61.99 31.12 62.33 30.8 62.73 30.8C63.94 30.8 73.57 30.8 74.78 30.8C75.19 30.8 75.52 31.12 75.52 31.51C75.52 34 75.52 46.4 75.52 68.73C75.3 69.2 75.05 69.44 74.78 69.44C73.57 69.44 63.94 69.44 62.73 69.44C62.33 69.44 61.99 69.12 61.99 68.73Z" id="b3jGc5H6Cs"></path><path d="M61.99 68.73C61.99 65.01 61.99 35.24 61.99 31.51C61.99 31.12 62.33 30.8 62.73 30.8C63.94 30.8 73.57 30.8 74.78 30.8C75.19 30.8 75.52 31.12 75.52 31.51C75.52 34 75.52 46.4 75.52 68.73C75.3 69.2 75.05 69.44 74.78 69.44C73.57 69.44 63.94 69.44 62.73 69.44C62.33 69.44 61.99 69.12 61.99 68.73Z" id="b4XAiVlCF"></path><path d="M61.99 68.73C61.99 65.01 61.99 35.24 61.99 31.51C61.99 31.12 62.33 30.8 62.73 30.8C63.94 30.8 73.57 30.8 74.78 30.8C75.19 30.8 75.52 31.12 75.52 31.51C75.52 34 75.52 46.4 75.52 68.73C75.3 69.2 75.05 69.44 74.78 69.44C73.57 69.44 63.94 69.44 62.73 69.44C62.33 69.44 61.99 69.12 61.99 68.73Z" id="cUISznYFx"></path><path d="M61.99 68.73C61.99 65.01 61.99 35.24 61.99 31.51C61.99 31.12 62.33 30.8 62.73 30.8C63.94 30.8 73.57 30.8 74.78 30.8C75.19 30.8 75.52 31.12 75.52 31.51C75.52 34 75.52 46.4 75.52 68.73C75.3 69.2 75.05 69.44 74.78 69.44C73.57 69.44 63.94 69.44 62.73 69.44C62.33 69.44 61.99 69.12 61.99 68.73Z" id="c3gDMSngDa"></path></defs><g><g><g><use xlink:href="#a1khy8no24" opacity="1" fill="#a6a6a6" fill-opacity="1"></use><g><use xlink:href="#a1khy8no24" opacity="1" fill-opacity="0" stroke="#000000" stroke-width="1" stroke-opacity="0"></use></g></g><g><use xlink:href="#a8EavGhop" opacity="1" fill="#000000" fill-opacity="0"></use><g><use xlink:href="#a8EavGhop" opacity="1" fill-opacity="0" stroke="#000000" stroke-width="1" stroke-opacity="0"></use></g></g><g><use xlink:href="#a1WBQdIAbL" opacity="1" fill="#000000" fill-opacity="0"></use><g><use xlink:href="#a1WBQdIAbL" opacity="1" fill-opacity="0" stroke="#000000" stroke-width="1" stroke-opacity="0"></use></g></g><g><use xlink:href="#d6fyqCfnR" opacity="1" fill="#000000" fill-opacity="0"></use><g><use xlink:href="#d6fyqCfnR" opacity="1" fill-opacity="0" stroke="#000000" stroke-width="1" stroke-opacity="0"></use></g></g><g><use xlink:href="#djOV6Pbv2" opacity="1" fill="#d9d9d9" fill-opacity="1"></use><g><use xlink:href="#djOV6Pbv2" opacity="1" fill-opacity="0" stroke="#000000" stroke-width="1" stroke-opacity="0"></use></g></g><g><use xlink:href="#c8yQ1v0Mm" opacity="1" fill="#000000" fill-opacity="0"></use><g><use xlink:href="#c8yQ1v0Mm" opacity="1" fill-opacity="0" stroke="#000000" stroke-width="1" stroke-opacity="0"></use></g></g><g><use xlink:href="#a23Y7fQQ6y" opacity="1" fill="#000000" fill-opacity="0"></use><g><use xlink:href="#a23Y7fQQ6y" opacity="1" fill-opacity="0" stroke="#000000" stroke-width="1" stroke-opacity="0"></use></g></g><g><use xlink:href="#b1oJB52GIC" opacity="1" fill="#000000" fill-opacity="0"></use><g><use xlink:href="#b1oJB52GIC" opacity="1" fill-opacity="0" stroke="#000000" stroke-width="1" stroke-opacity="0"></use></g></g><g><use xlink:href="#e1uVJdww47" opacity="1" fill="#d9d9d9" fill-opacity="1"></use><g><use xlink:href="#e1uVJdww47" opacity="1" fill-opacity="0" stroke="#000000" stroke-width="1" stroke-opacity="0"></use></g></g><g><use xlink:href="#a2ARxJC6L3" opacity="1" fill="#000000" fill-opacity="0"></use><g><use xlink:href="#a2ARxJC6L3" opacity="1" fill-opacity="0" stroke="#000000" stroke-width="1" stroke-opacity="0"></use></g></g><g><use xlink:href="#a1OgrE6t0I" opacity="1" fill="#000000" fill-opacity="0"></use><g><use xlink:href="#a1OgrE6t0I" opacity="1" fill-opacity="0" stroke="#000000" stroke-width="1" stroke-opacity="0"></use></g></g><g><use xlink:href="#d2QnUzi1sq" opacity="1" fill="#000000" fill-opacity="0"></use><g><use xlink:href="#d2QnUzi1sq" opacity="1" fill-opacity="0" stroke="#000000" stroke-width="1" stroke-opacity="0"></use></g></g><g><use xlink:href="#a12LWBE4FT" opacity="1" fill="#d9d9d9" fill-opacity="1"></use><g><use xlink:href="#a12LWBE4FT" opacity="1" fill-opacity="0" stroke="#000000" stroke-width="1" stroke-opacity="0"></use></g></g><g><use xlink:href="#bB7RhjW" opacity="1" fill="#000000" fill-opacity="0"></use><g><use xlink:href="#bB7RhjW" opacity="1" fill-opacity="0" stroke="#000000" stroke-width="1" stroke-opacity="0"></use></g></g><g><use xlink:href="#hMcs7ZUTv" opacity="1" fill="#000000" fill-opacity="0"></use><g><use xlink:href="#hMcs7ZUTv" opacity="1" fill-opacity="0" stroke="#000000" stroke-width="1" stroke-opacity="0"></use></g></g><g><use xlink:href="#dY2eWLOKS" opacity="1" fill="#000000" fill-opacity="0"></use><g><use xlink:href="#dY2eWLOKS" opacity="1" fill-opacity="0" stroke="#000000" stroke-width="1" stroke-opacity="0"></use></g></g><g><use xlink:href="#a36NLGEuni" opacity="1" fill="#d9d9d9" fill-opacity="1"></use><g><use xlink:href="#a36NLGEuni" opacity="1" fill-opacity="0" stroke="#000000" stroke-width="1" stroke-opacity="0"></use></g></g><g><use xlink:href="#bR5WPhHWu" opacity="1" fill="#000000" fill-opacity="0"></use><g><use xlink:href="#bR5WPhHWu" opacity="1" fill-opacity="0" stroke="#000000" stroke-width="1" stroke-opacity="0"></use></g></g><g><use xlink:href="#g5VoeDxlgz" opacity="1" fill="#000000" fill-opacity="0"></use><g><use xlink:href="#g5VoeDxlgz" opacity="1" fill-opacity="0" stroke="#000000" stroke-width="1" stroke-opacity="0"></use></g></g><g><use xlink:href="#a1AEHOWEXP" opacity="1" fill="#000000" fill-opacity="0"></use><g><use xlink:href="#a1AEHOWEXP" opacity="1" fill-opacity="0" stroke="#000000" stroke-width="1" stroke-opacity="0"></use></g></g><g><use xlink:href="#e1o0LN6wQG" opacity="1" fill="#ffffff" fill-opacity="1"></use><g><use xlink:href="#e1o0LN6wQG" opacity="1" fill-opacity="0" stroke="#000000" stroke-width="1" stroke-opacity="0"></use></g></g><g><use xlink:href="#aBa597Hm2" opacity="1" fill="#000000" fill-opacity="0"></use><g><use xlink:href="#aBa597Hm2" opacity="1" fill-opacity="0" stroke="#000000" stroke-width="1" stroke-opacity="0"></use></g></g><g><use xlink:href="#a2h6Cz9BJr" opacity="1" fill="#000000" fill-opacity="0"></use><g><use xlink:href="#a2h6Cz9BJr" opacity="1" fill-opacity="0" stroke="#000000" stroke-width="1" stroke-opacity="0"></use></g></g><g><use xlink:href="#bOczDUKZU" opacity="1" fill="#000000" fill-opacity="0"></use><g><use xlink:href="#bOczDUKZU" opacity="1" fill-opacity="0" stroke="#000000" stroke-width="1" stroke-opacity="0"></use></g></g><g><use xlink:href="#a55PTSikYe" opacity="1" fill="#ffffff" fill-opacity="1"></use><g><use xlink:href="#a55PTSikYe" opacity="1" fill-opacity="0" stroke="#000000" stroke-width="1" stroke-opacity="0"></use></g></g><g><use xlink:href="#d1jO6NhXpk" opacity="1" fill="#000000" fill-opacity="0"></use><g><use xlink:href="#d1jO6NhXpk" opacity="1" fill-opacity="0" stroke="#000000" stroke-width="1" stroke-opacity="0"></use></g></g><g><use xlink:href="#aKb9dTtQg" opacity="1" fill="#000000" fill-opacity="0"></use><g><use xlink:href="#aKb9dTtQg" opacity="1" fill-opacity="0" stroke="#000000" stroke-width="1" stroke-opacity="0"></use></g></g><g><use xlink:href="#bQjho2TFe" opacity="1" fill="#000000" fill-opacity="0"></use><g><use xlink:href="#bQjho2TFe" opacity="1" fill-opacity="0" stroke="#000000" stroke-width="1" stroke-opacity="0"></use></g></g><g><use xlink:href="#jI5UQ5wGE" opacity="1" fill="#ffffff" fill-opacity="1"></use><g><use xlink:href="#jI5UQ5wGE" opacity="1" fill-opacity="0" stroke="#000000" stroke-width="1" stroke-opacity="0"></use></g></g><g><use xlink:href="#a3WASUYF32" opacity="1" fill="#000000" fill-opacity="0"></use><g><use xlink:href="#a3WASUYF32" opacity="1" fill-opacity="0" stroke="#000000" stroke-width="1" stroke-opacity="0"></use></g></g><g><use xlink:href="#b6PjqSM9Y" opacity="1" fill="#000000" fill-opacity="0"></use><g><use xlink:href="#b6PjqSM9Y" opacity="1" fill-opacity="0" stroke="#000000" stroke-width="1" stroke-opacity="0"></use></g></g><g><use xlink:href="#a4vEFzsEM" opacity="1" fill="#000000" fill-opacity="0"></use><g><use xlink:href="#a4vEFzsEM" opacity="1" fill-opacity="0" stroke="#000000" stroke-width="1" stroke-opacity="0"></use></g></g><g><use xlink:href="#b3jGc5H6Cs" opacity="1" fill="#ffffff" fill-opacity="1"></use><g><use xlink:href="#b3jGc5H6Cs" opacity="1" fill-opacity="0" stroke="#000000" stroke-width="1" stroke-opacity="0"></use></g></g><g><use xlink:href="#b4XAiVlCF" opacity="1" fill="#000000" fill-opacity="0"></use><g><use xlink:href="#b4XAiVlCF" opacity="1" fill-opacity="0" stroke="#000000" stroke-width="1" stroke-opacity="0"></use></g></g><g><use xlink:href="#cUISznYFx" opacity="1" fill="#000000" fill-opacity="0"></use><g><use xlink:href="#cUISznYFx" opacity="1" fill-opacity="0" stroke="#000000" stroke-width="1" stroke-opacity="0"></use></g></g><g><use xlink:href="#c3gDMSngDa" opacity="1" fill="#000000" fill-opacity="0"></use><g><use xlink:href="#c3gDMSngDa" opacity="1" fill-opacity="0" stroke="#000000" stroke-width="1" stroke-opacity="0"></use></g></g></g></g></svg>