<?xml version="1.0" encoding="UTF-8" standalone="no"?>
<!DOCTYPE svg PUBLIC "-//W3C//DTD SVG 1.1//EN" "http://www.w3.org/Graphics/SVG/1.1/DTD/svg11.dtd">
<svg version="1.1" xmlns="http://www.w3.org/2000/svg" xmlns:xlink="http://www.w3.org/1999/xlink" preserveAspectRatio="xMidYMid meet" viewBox="0 0 640 640" width="640" height="640"><defs><path d="M160.15 453.27L240.06 453.27L240.06 496.79L283.69 496.79L327.25 453.26L392.65 453.26L479.85 366.28L479.85 163.21L181.93 163.21L160.15 221.24L160.15 453.27ZM450.79 192.19L450.79 351.74L399.91 402.5L319.98 402.5L276.42 445.96L276.42 402.5L210.99 402.5L210.99 192.19L450.79 192.19Z" id="a46KVrD4Yt"></path><path d="M160.15 453.27L240.06 453.27L240.06 496.79L283.69 496.79L327.25 453.26L392.65 453.26L479.85 366.28L479.85 163.21L181.93 163.21L160.15 221.24L160.15 453.27ZM450.79 192.19L450.79 351.74L399.91 402.5L319.98 402.5L276.42 445.96L276.42 402.5L210.99 402.5L210.99 192.19L450.79 192.19Z" id="a28vaIMC0L"></path><path d="M319.99 250.25L319.99 337.26L290.94 337.26L290.94 250.25L319.99 250.25Z" id="j1Nr2PRVj"></path><path d="M319.99 250.25L319.99 337.26L290.94 337.26L290.94 250.25L319.99 250.25Z" id="chto6bE2p"></path><path d="M399.9 250.25L399.9 337.26L370.84 337.26L370.84 250.25L399.9 250.25Z" id="b119Shfre9"></path><path d="M399.9 250.25L399.9 337.26L370.84 337.26L370.84 250.25L399.9 250.25Z" id="b3yhFLIanA"></path></defs><g><g><g><use xlink:href="#a46KVrD4Yt" opacity="1" fill="#673ab7" fill-opacity="1"></use><g><use xlink:href="#a46KVrD4Yt" opacity="1" fill-opacity="0" stroke="#000000" stroke-width="1" stroke-opacity="0"></use></g></g><g><use xlink:href="#a28vaIMC0L" opacity="1" fill="#000000" fill-opacity="0"></use><g><use xlink:href="#a28vaIMC0L" opacity="1" fill-opacity="0" stroke="#000000" stroke-width="1" stroke-opacity="0"></use></g></g><g><use xlink:href="#j1Nr2PRVj" opacity="1" fill="#673ab7" fill-opacity="1"></use><g><use xlink:href="#j1Nr2PRVj" opacity="1" fill-opacity="0" stroke="#000000" stroke-width="1" stroke-opacity="0"></use></g></g><g><use xlink:href="#chto6bE2p" opacity="1" fill="#000000" fill-opacity="0"></use><g><use xlink:href="#chto6bE2p" opacity="1" fill-opacity="0" stroke="#000000" stroke-width="1" stroke-opacity="0"></use></g></g><g><use xlink:href="#b119Shfre9" opacity="1" fill="#673ab7" fill-opacity="1"></use><g><use xlink:href="#b119Shfre9" opacity="1" fill-opacity="0" stroke="#000000" stroke-width="1" stroke-opacity="0"></use></g></g><g><use xlink:href="#b3yhFLIanA" opacity="1" fill="#000000" fill-opacity="0"></use><g><use xlink:href="#b3yhFLIanA" opacity="1" fill-opacity="0" stroke="#000000" stroke-width="1" stroke-opacity="0"></use></g></g></g></g></svg>