<?xml version="1.0" encoding="UTF-8" standalone="no"?>
<!DOCTYPE svg PUBLIC "-//W3C//DTD SVG 1.1//EN" "http://www.w3.org/Graphics/SVG/1.1/DTD/svg11.dtd">
<svg version="1.1" xmlns="http://www.w3.org/2000/svg" xmlns:xlink="http://www.w3.org/1999/xlink" preserveAspectRatio="xMidYMid meet" viewBox="0 0 640 640" width="640" height="640"><defs><path d="M640 320C640 496.61 496.61 640 320 640C143.39 640 0 496.61 0 320C0 143.39 143.39 0 320 0C496.61 0 640 143.39 640 320Z" id="d69AaAK9"></path><path d="M250.45 134.52C186.43 134.52 134.52 186.43 134.52 250.45C134.52 264.36 134.52 375.64 134.52 389.55C134.52 453.57 186.43 505.48 250.45 505.48C264.36 505.48 375.64 505.48 389.55 505.48C453.57 505.48 505.48 453.57 505.48 389.55C505.48 375.64 505.48 264.36 505.48 250.45C505.48 186.43 453.57 134.52 389.55 134.52C361.73 134.52 264.36 134.52 250.45 134.52ZM389.55 470.7C375.64 470.7 264.36 470.7 250.45 470.7C205.7 470.7 169.3 434.3 169.3 389.55C169.3 375.64 169.3 264.36 169.3 250.45C169.3 205.7 205.7 169.3 250.45 169.3C264.36 169.3 375.64 169.3 389.55 169.3C434.3 169.3 470.7 205.7 470.7 250.45C470.7 259.72 470.7 306.09 470.7 389.55C446.43 443.65 419.38 470.7 389.55 470.7Z" id="c4lIW69ukM"></path><linearGradient id="gradientc1erS2s3q" gradientUnits="userSpaceOnUse" x1="168.48" y1="471.52" x2="471.52" y2="168.48"><stop style="stop-color: #ffc107;stop-opacity: 1" offset="0%"></stop><stop style="stop-color: #f44336;stop-opacity: 1" offset="50.7%"></stop><stop style="stop-color: #9c27b0;stop-opacity: 1" offset="99%"></stop></linearGradient><path d="M227.26 320C227.26 371.21 268.79 412.74 320 412.74C371.21 412.74 412.74 371.21 412.74 320C412.74 268.79 371.21 227.26 320 227.26C268.79 227.26 227.26 268.79 227.26 320ZM262.04 320C262.04 288.03 288.05 262.04 320 262.04C351.95 262.04 377.96 288.03 377.96 320C377.96 351.95 351.95 377.96 320 377.96C288.05 377.96 262.04 351.95 262.04 320Z" id="bEVSWiXKo"></path><linearGradient id="gradientghR34fSud" gradientUnits="userSpaceOnUse" x1="254.43" y1="385.57" x2="385.57" y2="254.43"><stop style="stop-color: #ffc107;stop-opacity: 1" offset="0%"></stop><stop style="stop-color: #f44336;stop-opacity: 1" offset="50.7%"></stop><stop style="stop-color: #9c27b0;stop-opacity: 1" offset="99%"></stop></linearGradient><path d="M419.69 207.95C412.87 207.95 407.34 213.48 407.34 220.31C407.34 227.13 412.87 232.66 419.69 232.66C426.52 232.66 432.05 227.13 432.05 220.31C432.05 213.48 426.52 207.95 419.69 207.95Z" id="bsWU2qHY8"></path><linearGradient id="gradientak4MKyPBo" gradientUnits="userSpaceOnUse" x1="410.96" y1="229.05" x2="428.43" y2="211.57"><stop style="stop-color: #ffc107;stop-opacity: 1" offset="0%"></stop><stop style="stop-color: #f44336;stop-opacity: 1" offset="50.7%"></stop><stop style="stop-color: #9c27b0;stop-opacity: 1" offset="99%"></stop></linearGradient></defs><g><g><g><use xlink:href="#d69AaAK9" opacity="1" fill="#ffffff" fill-opacity="0.0"></use></g><g><use xlink:href="#c4lIW69ukM" opacity="1" fill="url(#gradientc1erS2s3q)"></use><g><use xlink:href="#c4lIW69ukM" opacity="1" fill-opacity="0" stroke="#000000" stroke-width="1" stroke-opacity="0"></use></g></g><g><use xlink:href="#bEVSWiXKo" opacity="1" fill="url(#gradientghR34fSud)"></use><g><use xlink:href="#bEVSWiXKo" opacity="1" fill-opacity="0" stroke="#000000" stroke-width="1" stroke-opacity="0"></use></g></g><g><use xlink:href="#bsWU2qHY8" opacity="1" fill="url(#gradientak4MKyPBo)"></use><g><use xlink:href="#bsWU2qHY8" opacity="1" fill-opacity="0" stroke="#000000" stroke-width="1" stroke-opacity="0"></use></g></g></g></g></svg>