<?xml version="1.0" encoding="UTF-8" standalone="no"?>
<!DOCTYPE svg PUBLIC "-//W3C//DTD SVG 1.1//EN" "http://www.w3.org/Graphics/SVG/1.1/DTD/svg11.dtd">
<svg version="1.1" xmlns="http://www.w3.org/2000/svg" xmlns:xlink="http://www.w3.org/1999/xlink" preserveAspectRatio="xMidYMid meet" viewBox="0 0 640 640" width="640" height="640"><defs><path d="M451.14 179.26C431.63 184.86 275.51 229.7 255.99 235.3C255.99 363.79 255.99 435.18 255.99 449.46C256.09 450.64 256.16 451.85 256.16 453.02C256.16 453.02 256.16 453.06 256.16 453.06C256.16 481.89 225.91 510.51 188.58 516.98C151.27 523.41 120.99 505.26 120.99 476.39C120.99 447.56 151.27 418.93 188.58 412.5C202.61 410.08 215.68 411.16 226.5 414.96C226.5 397.38 226.5 309.51 226.5 151.32C226.61 151.32 227.15 151.32 228.12 151.32C379.64 116.6 463.82 97.31 480.66 93.45C480.66 271.67 480.66 370.68 480.66 390.48C481.11 392.66 481.35 394.87 481.35 397.09C481.35 397.09 481.35 397.09 481.35 397.12C481.35 421.22 456.05 445.14 424.9 450.5C393.72 455.89 368.45 440.71 368.45 416.62C368.41 392.52 393.68 368.6 424.86 363.24C424.86 363.24 424.86 363.24 424.86 363.24C424.86 363.24 424.86 363.24 424.86 363.24C437.15 362.32 445.91 362.47 451.14 363.69C451.14 351.4 451.14 289.92 451.14 179.26Z" id="c1aDU7pO0P"></path><linearGradient id="gradientcheh0T4Vk" gradientUnits="userSpaceOnUse" x1="397.21" y1="90" x2="545.64" y2="913.32"><stop style="stop-color: #ff0081;stop-opacity: 1" offset="0%"></stop><stop style="stop-color: #4d0333;stop-opacity: 1" offset="100%"></stop></linearGradient><path d="M451.14 179.26C431.63 184.86 275.51 229.7 255.99 235.3C255.99 363.79 255.99 435.18 255.99 449.46C256.09 450.64 256.16 451.85 256.16 453.02C256.16 453.02 256.16 453.06 256.16 453.06C256.16 481.89 225.91 510.51 188.58 516.98C151.27 523.41 120.99 505.26 120.99 476.39C120.99 447.56 151.27 418.93 188.58 412.5C202.61 410.08 215.68 411.16 226.5 414.96C226.5 397.38 226.5 309.51 226.5 151.32C226.61 151.32 227.15 151.32 228.12 151.32C379.64 116.6 463.82 97.31 480.66 93.45C480.66 271.67 480.66 370.68 480.66 390.48C481.11 392.66 481.35 394.87 481.35 397.09C481.35 397.09 481.35 397.09 481.35 397.12C481.35 421.22 456.05 445.14 424.9 450.5C393.72 455.89 368.45 440.71 368.45 416.62C368.41 392.52 393.68 368.6 424.86 363.24C424.86 363.24 424.86 363.24 424.86 363.24C424.86 363.24 424.86 363.24 424.86 363.24C437.15 362.32 445.91 362.47 451.14 363.69C451.14 351.4 451.14 289.92 451.14 179.26Z" id="a2CbhyniFM"></path></defs><g><g><g><use xlink:href="#c1aDU7pO0P" opacity="1" fill="url(#gradientcheh0T4Vk)"></use><g><use xlink:href="#c1aDU7pO0P" opacity="1" fill-opacity="0" stroke="#000000" stroke-width="1" stroke-opacity="0"></use></g></g><g><use xlink:href="#a2CbhyniFM" opacity="1" fill="#000000" fill-opacity="0"></use><g><use xlink:href="#a2CbhyniFM" opacity="1" fill-opacity="0" stroke="#000000" stroke-width="1" stroke-opacity="0"></use></g></g></g></g></svg>