<?xml version="1.0" encoding="UTF-8" standalone="no"?>
<!DOCTYPE svg PUBLIC "-//W3C//DTD SVG 1.1//EN" "http://www.w3.org/Graphics/SVG/1.1/DTD/svg11.dtd">
<svg version="1.1" xmlns="http://www.w3.org/2000/svg" xmlns:xlink="http://www.w3.org/1999/xlink" preserveAspectRatio="xMidYMid meet" viewBox="0 0 640 640" width="640" height="640"><defs><path d="M510.68 315.52C517.47 295.55 506.79 273.75 486.9 266.92C478.62 264.09 469.86 264.35 461.75 267.27C462.06 265.11 462.28 262.99 462.28 260.91C462.28 240.86 449.62 223.1 430.84 216.73C422.48 213.84 413.69 213.51 405.28 215.47C406.29 212.49 414.37 188.7 415.38 185.72C417.27 180.02 418.23 174.06 418.23 167.96C418.23 144.42 403.31 123.4 380.99 115.64C352.37 105.95 321 121.39 311.1 150.12C309.82 153.89 303.44 172.73 291.95 206.64C281.71 173.66 276.02 155.34 274.88 151.67C265.83 122.17 233.51 106.06 205.9 115.26C177.02 124.49 160.79 155.54 169.73 184.51C171.76 191 181.89 223.41 200.12 281.76C198.29 281.76 197.28 281.76 197.08 281.76C189.93 281.76 184.12 287.57 184.12 294.72C184.12 303.17 184.12 370.76 184.12 379.2C184.12 460.89 250.28 527.33 331.61 527.33C406.66 527.33 469.71 469.98 478 395.72C482.92 391.36 486.77 385.89 488.95 379.48C491.12 373.08 508.51 321.91 510.68 315.52ZM464.41 371.17C462.23 377.56 455.37 381.09 448.86 378.88C442.43 376.68 439 369.6 441.21 363.12C443.38 356.73 460.76 305.55 462.94 299.16C465.15 292.66 472.11 289.24 478.5 291.44C484.93 293.63 488.35 300.71 486.15 307.19C483.98 313.59 466.58 364.77 464.41 371.17ZM402.55 363.62C398.92 374.57 387.16 380.29 376.6 376.61C369.94 374.28 365.1 368.91 363.29 362.52C363.63 362.19 364.05 361.95 364.37 361.6C373.3 352.9 378.21 341.13 378.21 328.51C378.21 323.5 377.21 318.76 375.76 314.24C397.38 256.04 394.07 248.37 406.56 242.21C411.5 239.77 417.14 239.43 422.46 241.26C432.36 244.61 439.06 255.56 435.21 267.7C431.95 277.29 405.81 354.03 402.55 363.62ZM213.97 139.89C227.79 135.26 245.24 143.35 250.13 159.33C253.02 168.64 276.15 243.12 279.04 252.43C282.84 264.52 299.96 263.71 303.69 252.74C306.88 243.32 332.42 167.94 335.61 158.52C340.86 143.3 357.48 135.04 372.6 140.17C388 145.53 395.85 162.35 390.82 177.48C389.28 182.02 365.43 252.21 366.88 247.96C365.54 251.91 354.8 283.51 353.46 287.46C346.91 283.94 339.55 281.75 331.61 281.75C324.64 281.75 289.82 281.75 227.15 281.75C209.73 225.79 198.84 190.81 194.49 176.83C189.72 161.42 198.39 144.87 213.97 139.89ZM210.03 307.67C282.98 307.67 323.5 307.67 331.61 307.67C343.01 307.67 352.28 317.02 352.28 328.52C352.28 334.12 350.14 339.28 345.99 343.33C342.25 347.21 337.12 349.35 331.61 349.35C319.17 349.35 270.18 349.35 272.75 349.35C265.6 349.35 259.8 355.16 259.8 362.31C259.8 369.46 265.6 375.27 272.75 375.27C273.16 375.27 276.38 375.27 276.78 375.27C316.09 375.27 309.69 419.73 310.26 421.46C310.26 428.61 316.06 434.41 323.21 434.41C330.36 434.41 336.17 428.61 336.17 421.46C335.44 414.63 339.72 395.72 325.7 375.27C330.29 375.13 333.35 375.66 340.05 374.44C345.04 386.58 355.01 396.49 368.07 401.09C386.28 407.41 406.83 402.06 419.58 385.66C424 393.68 431.17 400.21 440.48 403.39C443.69 404.49 446.98 405.03 450.28 405.25C438.25 460.36 389.23 501.41 331.61 501.41C264.57 501.41 210.03 446.59 210.03 379.2C210.03 374.43 210.03 350.59 210.03 307.67Z" id="aoGaVA7UU"></path><path d="M510.68 315.52C517.47 295.55 506.79 273.75 486.9 266.92C478.62 264.09 469.86 264.35 461.75 267.27C462.06 265.11 462.28 262.99 462.28 260.91C462.28 240.86 449.62 223.1 430.84 216.73C422.48 213.84 413.69 213.51 405.28 215.47C406.29 212.49 414.37 188.7 415.38 185.72C417.27 180.02 418.23 174.06 418.23 167.96C418.23 144.42 403.31 123.4 380.99 115.64C352.37 105.95 321 121.39 311.1 150.12C309.82 153.89 303.44 172.73 291.95 206.64C281.71 173.66 276.02 155.34 274.88 151.67C265.83 122.17 233.51 106.06 205.9 115.26C177.02 124.49 160.79 155.54 169.73 184.51C171.76 191 181.89 223.41 200.12 281.76C198.29 281.76 197.28 281.76 197.08 281.76C189.93 281.76 184.12 287.57 184.12 294.72C184.12 303.17 184.12 370.76 184.12 379.2C184.12 460.89 250.28 527.33 331.61 527.33C406.66 527.33 469.71 469.98 478 395.72C482.92 391.36 486.77 385.89 488.95 379.48C491.12 373.08 508.51 321.91 510.68 315.52ZM464.41 371.17C462.23 377.56 455.37 381.09 448.86 378.88C442.43 376.68 439 369.6 441.21 363.12C443.38 356.73 460.76 305.55 462.94 299.16C465.15 292.66 472.11 289.24 478.5 291.44C484.93 293.63 488.35 300.71 486.15 307.19C483.98 313.59 466.58 364.77 464.41 371.17ZM402.55 363.62C398.92 374.57 387.16 380.29 376.6 376.61C369.94 374.28 365.1 368.91 363.29 362.52C363.63 362.19 364.05 361.95 364.37 361.6C373.3 352.9 378.21 341.13 378.21 328.51C378.21 323.5 377.21 318.76 375.76 314.24C397.38 256.04 394.07 248.37 406.56 242.21C411.5 239.77 417.14 239.43 422.46 241.26C432.36 244.61 439.06 255.56 435.21 267.7C431.95 277.29 405.81 354.03 402.55 363.62ZM213.97 139.89C227.79 135.26 245.24 143.35 250.13 159.33C253.02 168.64 276.15 243.12 279.04 252.43C282.84 264.52 299.96 263.71 303.69 252.74C306.88 243.32 332.42 167.94 335.61 158.52C340.86 143.3 357.48 135.04 372.6 140.17C388 145.53 395.85 162.35 390.82 177.48C389.28 182.02 365.43 252.21 366.88 247.96C365.54 251.91 354.8 283.51 353.46 287.46C346.91 283.94 339.55 281.75 331.61 281.75C324.64 281.75 289.82 281.75 227.15 281.75C209.73 225.79 198.84 190.81 194.49 176.83C189.72 161.42 198.39 144.87 213.97 139.89ZM210.03 307.67C282.98 307.67 323.5 307.67 331.61 307.67C343.01 307.67 352.28 317.02 352.28 328.52C352.28 334.12 350.14 339.28 345.99 343.33C342.25 347.21 337.12 349.35 331.61 349.35C319.17 349.35 270.18 349.35 272.75 349.35C265.6 349.35 259.8 355.16 259.8 362.31C259.8 369.46 265.6 375.27 272.75 375.27C273.16 375.27 276.38 375.27 276.78 375.27C316.09 375.27 309.69 419.73 310.26 421.46C310.26 428.61 316.06 434.41 323.21 434.41C330.36 434.41 336.17 428.61 336.17 421.46C335.44 414.63 339.72 395.72 325.7 375.27C330.29 375.13 333.35 375.66 340.05 374.44C345.04 386.58 355.01 396.49 368.07 401.09C386.28 407.41 406.83 402.06 419.58 385.66C424 393.68 431.17 400.21 440.48 403.39C443.69 404.49 446.98 405.03 450.28 405.25C438.25 460.36 389.23 501.41 331.61 501.41C264.57 501.41 210.03 446.59 210.03 379.2C210.03 374.43 210.03 350.59 210.03 307.67Z" id="ctGt0j1jB"></path></defs><g><g><g><use xlink:href="#aoGaVA7UU" opacity="1" fill="#000000" fill-opacity="1"></use><g><use xlink:href="#aoGaVA7UU" opacity="1" fill-opacity="0" stroke="#000000" stroke-width="1" stroke-opacity="0"></use></g></g><g><use xlink:href="#ctGt0j1jB" opacity="1" fill="#000000" fill-opacity="0"></use><g><use xlink:href="#ctGt0j1jB" opacity="1" fill-opacity="0" stroke="#000000" stroke-width="1" stroke-opacity="0"></use></g></g></g></g></svg>