<?xml version="1.0" encoding="UTF-8" standalone="no"?>
<!DOCTYPE svg PUBLIC "-//W3C//DTD SVG 1.1//EN" "http://www.w3.org/Graphics/SVG/1.1/DTD/svg11.dtd">
<svg version="1.1" xmlns="http://www.w3.org/2000/svg" xmlns:xlink="http://www.w3.org/1999/xlink" preserveAspectRatio="xMidYMid meet" viewBox="0 0 640 640" width="640" height="640"><defs><path d="M640 320C640 496.61 496.61 640 320 640C143.39 640 0 496.61 0 320C0 143.39 143.39 0 320 0C496.61 0 640 143.39 640 320Z" id="aDdyLu6Z7"></path><path d="M532.13 198.49C517.41 205.02 501.59 209.44 484.98 211.42C501.93 201.26 514.95 185.17 521.08 166C505.22 175.41 487.65 182.24 468.95 185.92C453.97 169.97 432.64 160 409.03 160C363.69 160 326.93 196.76 326.93 242.09C326.93 248.52 327.66 254.79 329.06 260.8C260.83 257.37 200.34 224.69 159.86 175.03C152.79 187.15 148.74 201.25 148.74 216.3C148.74 244.78 163.23 269.9 185.26 284.62C171.8 284.2 159.15 280.51 148.08 274.36C148.07 274.7 148.07 275.04 148.07 275.39C148.07 315.16 176.37 348.34 213.92 355.88C207.03 357.76 199.78 358.76 192.29 358.76C187 358.76 181.86 358.25 176.85 357.29C187.3 389.91 217.61 413.64 253.54 414.3C225.44 436.32 190.04 449.44 151.58 449.44C144.96 449.44 138.42 449.06 132 448.3C168.33 471.59 211.48 485.18 257.84 485.18C408.84 485.18 491.41 360.09 491.41 251.61C491.41 248.05 491.33 244.51 491.17 240.99C507.21 229.42 521.13 214.96 532.13 198.49" id="b4UFChH8h5"></path></defs><g><g><g><use xlink:href="#aDdyLu6Z7" opacity="1" fill="#ffffff" fill-opacity="1"></use></g><g><use xlink:href="#b4UFChH8h5" opacity="1" fill="#55acee" fill-opacity="1"></use><g><use xlink:href="#b4UFChH8h5" opacity="1" fill-opacity="0" stroke="#000000" stroke-width="1" stroke-opacity="0"></use></g></g></g></g></svg>